<?xml version="1.0"?>
<svg xmlns="http://www.w3.org/2000/svg" class="" viewBox="0 -1 401.523 401" width="20px" height="20px"><g><path class="active-path" d="m 370.59 250.973 c -5.52344 0 -10 4.47656 -10 10 v 88.7891 c -0.019532 16.5625 -13.4375 29.9844 -30 30 h -280.59 c -16.5625 -0.015625 -29.9805 -13.4375 -30 -30 v -260.59 c 0.019531 -16.5586 13.4375 -29.9805 30 -30 h 88.7891 c 5.52344 0 10 -4.47656 10 -10 c 0 -5.51953 -4.47656 -10 -10 -10 h -88.7891 c -27.6016 0.03125 -49.9688 22.3984 -50 50 v 260.594 c 0.03125 27.6016 22.3984 49.9688 50 50 h 280.59 c 27.6016 -0.03125 49.9688 -22.3984 50 -50 v -88.793 c 0 -5.52344 -4.47656 -10 -10 -10 Z m 0 0" data-original="#000000" data-old_color="#B4BEDF" fill="#B5BFDF"/><path class="active-path" d="m 376.629 13.4414 c -17.5742 -17.5742 -46.0664 -17.5742 -63.6406 0 l -178.406 178.406 c -1.22266 1.22266 -2.10547 2.73828 -2.56641 4.40234 l -23.4609 84.6992 c -0.964844 3.47266 0.015624 7.19141 2.5625 9.74219 c 2.55078 2.54688 6.26953 3.52734 9.74219 2.56641 l 84.6992 -23.4648 c 1.66406 -0.460938 3.17969 -1.34375 4.40234 -2.56641 l 178.402 -178.41 c 17.5469 -17.5859 17.5469 -46.0547 0 -63.6406 Z m -220.258 184.906 l 146.012 -146.016 l 47.0898 47.0898 l -146.016 146.016 Z m -9.40625 18.875 l 37.6211 37.625 l -52.0391 14.418 Z m 227.258 -142.547 l -10.6055 10.6055 l -47.0938 -47.0938 l 10.6094 -10.6055 c 9.76172 -9.76172 25.5898 -9.76172 35.3516 0 l 11.7383 11.7344 c 9.74609 9.77344 9.74609 25.5898 0 35.3594 Z m 0 0" data-original="#000000" data-old_color="#B4BEDF" fill="#B5BFDF"/></g> </svg>
