<svg height="512pt" viewBox="0 0 512 512" width="512pt" xmlns="http://www.w3.org/2000/svg"><path d="m494.34375 194.207031v300.136719c-.027344 9.738281-7.914062 17.628906-17.652344 17.65625h-300.140625c-9.738281-.027344-17.625-7.917969-17.652343-17.65625v-300.136719zm0 0" fill="#f18d46"/><path d="m494.34375 247.171875v247.171875c-.027344 9.738281-7.914062 17.628906-17.652344 17.65625h-300.140625c-9.738281-.027344-17.625-7.917969-17.652343-17.65625v-247.171875zm0 0" fill="#fac176"/><path d="m211.332031 300.136719h79.976563c4.878906 0 8.828125 3.953125 8.828125 8.828125v114.757812c0 4.875-3.949219 8.828125-8.828125 8.828125h-88.273438zm0 0" fill="#2fa8cc"/><path d="m26.484375 353.101562h-15.890625c-4.875 0-8.828125-3.949218-8.828125-8.824218s3.953125-8.828125 8.828125-8.828125h15.890625c4.875 0 8.824219 3.953125 8.824219 8.828125s-3.949219 8.824218-8.824219 8.824218zm0 0" fill="#2c3e50"/><path d="m236.578125 353.101562h-15.886719c-4.878906 0-8.828125-3.949218-8.828125-8.824218s3.949219-8.828125 8.828125-8.828125h15.886719c4.875 0 8.828125 3.953125 8.828125 8.828125s-3.953125 8.824218-8.828125 8.824218zm0 0" fill="#2c3e50"/><path d="m229.515625 388.414062h-211.859375l5.296875-26.042968 12.445313-60.46875c3.355468-16.441406 17.824218-28.25 34.605468-28.246094h107.164063c16.785156-.003906 31.25 11.804688 34.605469 28.246094l4.765624 23.128906zm0 0" fill="#b0d3f0"/><path d="m229.515625 388.414062h-211.859375l5.296875-26.042968c31.867187-20.214844 91.363281-43.078125 193.585937-37.339844zm0 0" fill="#90bae1"/><path d="m344.277344 476.691406h114.757812v35.308594h-114.757812zm0 0" fill="#d25627"/><path d="m459.035156 308.964844v167.726562h-114.757812v-167.726562c0-4.875 3.949218-8.828125 8.824218-8.828125h97.105469c4.875 0 8.828125 3.953125 8.828125 8.828125zm0 0" fill="#2fa8cc"/><path d="m203.035156 194.207031v4.414063c0 17.0625-13.832031 30.894531-30.898437 30.894531-17.0625 0-30.894531-13.832031-30.894531-30.894531v-4.414063zm0 0" fill="#e64c3c"/><path d="m264.828125 194.207031v4.414063c0 17.0625-13.832031 30.894531-30.898437 30.894531-17.0625 0-30.894532-13.832031-30.894532-30.894531v-4.414063zm0 0" fill="#ecf0f1"/><path d="m326.621094 194.207031v4.414063c0 17.0625-13.832032 30.894531-30.898438 30.894531-17.0625 0-30.894531-13.832031-30.894531-30.894531v-4.414063zm0 0" fill="#e64c3c"/><path d="m388.414062 194.207031v4.414063c0 17.0625-13.832031 30.894531-30.898437 30.894531-17.0625 0-30.894531-13.832031-30.894531-30.894531v-4.414063zm0 0" fill="#ecf0f1"/><path d="m450.207031 194.207031v4.414063c0 17.0625-13.832031 30.894531-30.898437 30.894531-17.0625 0-30.894532-13.832031-30.894532-30.894531v-4.414063zm0 0" fill="#e64c3c"/><path d="m512 194.207031v4.414063c0 17.0625-13.832031 30.894531-30.898438 30.894531-17.0625 0-30.894531-13.832031-30.894531-30.894531v-4.414063zm0 0" fill="#ecf0f1"/><path d="m238.34375 70.621094-35.308594 123.585937h-61.792968l50.667968-118.203125c1.382813-3.261718 4.582032-5.378906 8.121094-5.382812zm0 0" fill="#c03a2b"/><path d="m282.484375 70.621094-17.65625 123.585937h-61.792969l35.308594-123.585937zm0 0" fill="#bdc3c7"/><path d="m326.621094 70.621094v123.585937h-61.792969l17.65625-123.585937zm0 0" fill="#c03a2b"/><path d="m512 194.207031h-61.792969l-35.308593-123.585937h38.308593c3.542969.003906 6.742188 2.121094 8.121094 5.382812zm0 0" fill="#bdc3c7"/><path d="m450.207031 194.207031h-61.792969l-17.65625-123.585937h44.140626zm0 0" fill="#c03a2b"/><path d="m388.414062 194.207031h-61.792968v-123.585937h44.136718zm0 0" fill="#bdc3c7"/><path d="m220.691406 0h211.859375c4.875 0 8.828125 3.953125 8.828125 8.828125v88.273437c0 4.878907-3.953125 8.828126-8.828125 8.828126h-211.859375c-4.878906 0-8.828125-3.949219-8.828125-8.828126v-88.273437c0-4.875 3.949219-8.828125 8.828125-8.828125zm0 0" fill="#e64c3c"/><g fill="#ecf0f1"><path d="m238.34375 88.277344c-4.875 0-8.828125-3.953125-8.828125-8.828125v-52.964844c0-4.878906 3.953125-8.828125 8.828125-8.828125h17.65625c4.875 0 8.828125 3.949219 8.828125 8.828125 0 4.875-3.953125 8.824219-8.828125 8.824219h-8.828125v44.140625c0 4.875-3.953125 8.828125-8.828125 8.828125zm0 0"/><path d="m256 61.792969h-17.65625c-4.875 0-8.828125-3.953125-8.828125-8.828125s3.953125-8.828125 8.828125-8.828125h17.65625c4.875 0 8.828125 3.953125 8.828125 8.828125s-3.953125 8.828125-8.828125 8.828125zm0 0"/><path d="m308.964844 88.277344h-26.480469c-4.878906 0-8.828125-3.953125-8.828125-8.828125v-52.964844c0-4.878906 3.949219-8.828125 8.828125-8.828125h26.480469c4.875 0 8.828125 3.949219 8.828125 8.828125v52.964844c0 4.875-3.953125 8.828125-8.828125 8.828125zm-17.65625-17.65625h8.828125v-35.3125h-8.828125zm0 0"/><path d="m361.929688 88.277344h-26.480469c-4.875 0-8.828125-3.953125-8.828125-8.828125v-52.964844c0-4.878906 3.953125-8.828125 8.828125-8.828125h26.480469c4.875 0 8.828124 3.949219 8.828124 8.828125v52.964844c0 4.875-3.953124 8.828125-8.828124 8.828125zm-17.652344-17.65625h8.824218v-35.3125h-8.824218zm0 0"/><path d="m397.242188 88.277344h-8.828126c-4.875 0-8.828124-3.953125-8.828124-8.828125v-52.964844c0-4.878906 3.953124-8.828125 8.828124-8.828125h8.828126c14.625 0 26.480468 11.855469 26.480468 26.480469v17.65625c0 14.625-11.855468 26.484375-26.480468 26.484375zm0-52.96875v35.3125c4.875 0 8.828124-3.953125 8.828124-8.828125v-17.65625c0-4.875-3.953124-8.828125-8.828124-8.828125zm0 0"/></g><path d="m52.964844 397.242188c-4.875 0-8.828125-3.953126-8.828125-8.828126v-17.65625c0-14.625 11.859375-26.480468 26.484375-26.480468h35.308594c4.875 0 8.828124 3.949218 8.828124 8.824218 0 4.878907-3.953124 8.828126-8.828124 8.828126h-35.308594c-4.875 0-8.828125 3.953124-8.828125 8.828124v17.65625c0 4.875-3.953125 8.828126-8.828125 8.828126zm0 0" fill="#2c3e50"/><path d="m194.207031 397.242188c-4.875 0-8.828125-3.953126-8.828125-8.828126v-17.65625c0-4.875-3.953125-8.828124-8.828125-8.828124h-35.308593c-4.875 0-8.828126-3.949219-8.828126-8.828126 0-4.875 3.953126-8.824218 8.828126-8.824218h35.308593c14.628907 0 26.484375 11.855468 26.484375 26.480468v17.65625c0 4.875-3.953125 8.828126-8.828125 8.828126zm0 0" fill="#2c3e50"/><path d="m17.65625 388.414062h211.859375c9.753906 0 17.65625 7.902344 17.65625 17.65625v44.136719c0 9.75-7.902344 17.65625-17.65625 17.65625h-211.859375c-9.75 0-17.65625-7.90625-17.65625-17.65625v-44.136719c0-9.753906 7.90625-17.65625 17.65625-17.65625zm0 0" fill="#c03a2b"/><path d="m247.171875 415.875v24.523438c0 5.394531-7.945313 9.808593-17.65625 9.808593h-211.859375c-9.710938 0-17.65625-4.414062-17.65625-9.808593v-24.523438c0-5.390625 7.945312-9.804688 17.65625-9.804688h211.859375c9.710937 0 17.65625 4.414063 17.65625 9.804688zm0 0" fill="#e64c3c"/><path d="m17.65625 467.863281h35.308594v26.480469c0 9.75-7.902344 17.65625-17.65625 17.65625-9.75 0-17.652344-7.90625-17.652344-17.65625zm0 0" fill="#2c3e50"/><path d="m194.207031 467.863281h35.308594v26.480469c0 9.75-7.902344 17.65625-17.652344 17.65625s-17.65625-7.90625-17.65625-17.65625zm0 0" fill="#2c3e50"/><path d="m61.792969 423.722656v8.828125c0 4.875-3.953125 8.828125-8.828125 8.828125s-8.828125-3.953125-8.828125-8.828125h-44.136719v-17.652343h52.964844c4.875 0 8.828125 3.949218 8.828125 8.824218zm0 0" fill="#f3d55b"/><path d="m247.171875 414.898438v17.652343h-44.136719c0 4.875-3.953125 8.828125-8.828125 8.828125s-8.828125-3.953125-8.828125-8.828125v-8.828125c0-4.875 3.953125-8.824218 8.828125-8.824218zm0 0" fill="#f3d55b"/><path d="m141.242188 432.550781h-35.3125c-4.875 0-8.828126-3.953125-8.828126-8.828125s3.953126-8.824218 8.828126-8.824218h35.3125c4.875 0 8.828124 3.949218 8.828124 8.824218s-3.953124 8.828125-8.828124 8.828125zm0 0" fill="#ecf0f1"/></svg>